# xmcd
#
# Track frame offsets:
#	182
#	24985
#	47492
#	73157
#	120215
#	146370
#	167912
#	175257
#	196020
#	230860
#	248820
#	274755
#
# Disc length: 3941 seconds
#
# Revision: 1
# Processed by: cddbd v1.5.2PL0 Copyright (c) Steve Scherf et al.
# Submitted via: audiograbber 1.83.01
#
DISCID=a00f630c
DTITLE=Bobby Lewis - Flugel Gourmet
DYEAR=1997
DGENRE=Jazz
TTITLE0=The Lamp Is Low
TTITLE1=None But The Lonely Heart
TTITLE2=Evening (After Sunset)
TTITLE3=New World
TTITLE4=Only Trust Your Heart
TTITLE5=Zarathustra
TTITLE6=Stardust
TTITLE7=The Midnight Sun Will Never Set
TTITLE8=Pavane/Mellow Mood
TTITLE9=Moon Love
TTITLE10=The Merger
TTITLE11=Thanks A Million
EXTD=
EXTT0=
EXTT1=
EXTT2=
EXTT3=
EXTT4=
EXTT5=
EXTT6=
EXTT7=
EXTT8=
EXTT9=
EXTT10=
EXTT11=
PLAYORDER=
